<?xml version="1.0" encoding="utf-8"?>
<!-- Generator: Adobe Illustrator 27.5.0, SVG Export Plug-In . SVG Version: 6.00 Build 0)  -->
<svg version="1.1" xmlns="http://www.w3.org/2000/svg" xmlns:xlink="http://www.w3.org/1999/xlink" x="0px" y="0px"
	 viewBox="0 0 500 500" style="enable-background:new 0 0 500 500;" xml:space="preserve">
<g id="BACKGROUND">
	<rect x="-0.248" y="-0.325" style="fill:#FFFFFF;" width="500" height="500"/>
</g>
<g id="OBJECTS">
	<g>
		<defs>
			
				<ellipse id="SVGID_1_" transform="matrix(0.2204 -0.9754 0.9754 0.2204 -5.8621 185.5992)" cx="113.174" cy="96.467" rx="56.54" ry="56.54"/>
		</defs>
		<use xlink:href="#SVGID_1_"  style="overflow:visible;fill:#F7D8BA;"/>
		<clipPath id="SVGID_00000151544558517692631900000005890140341812193177_">
			<use xlink:href="#SVGID_1_"  style="overflow:visible;"/>
		</clipPath>
		<g style="clip-path:url(#SVGID_00000151544558517692631900000005890140341812193177_);">
			<path style="fill:#D46919;" d="M96.294,67.862c0,0-2.553,14.569-20.082,25.147c-18.69,11.278-8.039,47.115,24.688,47.904
				c35.551,0.857,53.619-43.558,33.071-79.832L96.294,67.862z"/>
			<path style="fill:#FFFFFF;" d="M155.332,130.224c-1.831-4.88-7.429-11.29-18.271-12.99l-20.208-3.967l-20.208,3.967
				c-10.843,1.7-16.44,8.11-18.271,12.99l-4.235,19.12h18.544l1.353,1.545l22.5,4.428l23.133-5.974h1.355h18.544L155.332,130.224z"
				/>
			<path style="fill:#E0A78F;" d="M96.015,117.442l21.915-4.443l20.449,4.382l-0.454,0.326
				C125.43,126.699,108.612,126.291,96.015,117.442L96.015,117.442z"/>
			<g>
				<g>
					<path style="fill:#E0A78F;" d="M105.923,85.023c0.126,3.264-2.418,6.013-5.682,6.139c-3.264,0.126-6.013-2.418-6.139-5.682
						c-0.126-3.264,2.418-6.013,5.682-6.139C103.048,79.215,105.797,81.759,105.923,85.023z"/>
					
						<path style="fill:none;stroke:#B9635E;stroke-width:0.6612;stroke-linecap:round;stroke-linejoin:round;stroke-miterlimit:10;" d="
						M96.646,84.455c0,0,2.34-1.17,4.623,2.893"/>
				</g>
				<g>
					<path style="fill:#E0A78F;" d="M127.519,84.967c0.034,3.267,2.709,5.887,5.976,5.854c3.267-0.034,5.887-2.709,5.854-5.976
						c-0.034-3.267-2.709-5.887-5.976-5.854C130.106,79.025,127.485,81.701,127.519,84.967z"/>
					
						<path style="fill:none;stroke:#B9635E;stroke-width:0.6612;stroke-linecap:round;stroke-linejoin:round;stroke-miterlimit:10;" d="
						M136.757,83.946c0,0-2.394-1.054-4.477,3.116"/>
				</g>
				
					<ellipse transform="matrix(0.9999 -0.0103 0.0103 0.9999 -0.7237 1.2057)" style="fill:#D46919;" cx="116.408" cy="70.695" rx="20.345" ry="18.99"/>
				<g>
					<path style="fill:#E0A78F;" d="M122.55,96.826c0,0-2.534,2.376-4.861,2.977c-2.327,0.601-4.616-1.143-4.646-1.164
						c-0.029-0.021-2.749-2.017-2.749-2.017l-0.892,19.478l0.306,0.322c4.006,4.215,9.711,4.215,13.664,0l0.578-0.617L122.55,96.826
						z"/>
				</g>
				<path style="fill:#1E0B02;" d="M108.426,94.069c0,0,3.399,11.341,9.255,11.169c4.813-0.141,6.041-10.761,6.041-10.761
					L108.426,94.069z"/>
				<path style="fill:#E0A78F;" d="M132.575,73.855c0.098,6.398-0.771,11.934-1.664,15.868c-0.874,3.851-3.459,6.573-7.138,8.788
					l-0.67,0.403c-3.892,2.344-8.965,2.475-12.986,0.336l0,0c-4.055-2.158-6.916-5.04-7.846-9.144
					c-1.691-7.464-1.991-15.755-1.991-15.755s-1.527-17.294,15.894-17.248C133.596,57.15,132.575,73.855,132.575,73.855z"/>
				<g>
					
						<polyline style="fill:none;stroke:#B9635E;stroke-width:0.6612;stroke-linecap:round;stroke-linejoin:round;stroke-miterlimit:10;" points="
						115.118,82.882 115.143,85.383 116.852,85.366 					"/>
					<path style="fill:#D46919;" d="M103.194,74.015l9.201-0.925c0,0-0.849-2.378-4.569-1.952
						C104.02,71.573,103.194,74.015,103.194,74.015z"/>
					<path style="fill:#D46919;" d="M128.51,73.754l-9.218-0.735c0,0,0.8-2.395,4.527-2.046
						C127.634,71.329,128.51,73.754,128.51,73.754z"/>
					<path style="fill:#1E0B02;" d="M110.405,79.543c0.008,0.779-0.617,1.416-1.395,1.424c-0.778,0.008-1.416-0.617-1.424-1.395
						c-0.008-0.779,0.617-1.416,1.395-1.424C109.759,78.14,110.396,78.765,110.405,79.543z"/>
					<path style="fill:#1E0B02;" d="M124.235,79.401c0.008,0.779-0.617,1.416-1.395,1.424c-0.779,0.008-1.416-0.617-1.424-1.395
						c-0.008-0.779,0.617-1.416,1.395-1.424C123.589,77.997,124.227,78.622,124.235,79.401z"/>
					
						<path style="fill:none;stroke:#000000;stroke-width:0.6612;stroke-linecap:round;stroke-linejoin:round;stroke-miterlimit:10;" d="
						M110.868,88.977c0,0,3.937,2.092,10.226-0.105"/>
				</g>
				<path style="fill:#D46919;" d="M132.534,69.922c0,0-25.626,1.225-24.7-13.82C107.834,56.102,130.11,49.539,132.534,69.922z"/>
				<path style="fill:#D46919;" d="M99.857,70.271c0,0,8.967-3.862,8.872-13.093C108.729,57.179,99.509,58.339,99.857,70.271z"/>
			</g>
			<g>
				<defs>
					<path id="SVGID_00000006679670357304374440000002081758289285668783_" d="M155.332,130.369
						c-1.761-4.743-7.021-10.904-17.066-12.897l-0.341,0.248c-12.495,9.087-29.313,8.674-41.911-0.268l0.63-0.21
						c-10.843,1.718-16.44,8.196-18.271,13.127l-4.235,19.322h18.544h1.355h22.815h22.815h1.355h18.544L155.332,130.369z"/>
				</defs>
				<clipPath id="SVGID_00000085209280761057636930000002743823465240239747_">
					<use xlink:href="#SVGID_00000006679670357304374440000002081758289285668783_"  style="overflow:visible;"/>
				</clipPath>
				<g style="clip-path:url(#SVGID_00000085209280761057636930000002743823465240239747_);">
					<line style="fill:#EF758D;stroke:#EF758D;stroke-miterlimit:10;" x1="71.684" y1="119.583" x2="161.398" y2="119.583"/>
					<line style="fill:#EF758D;stroke:#EF758D;stroke-miterlimit:10;" x1="71.684" y1="124.267" x2="161.398" y2="124.267"/>
					<line style="fill:#EF758D;stroke:#EF758D;stroke-miterlimit:10;" x1="71.684" y1="128.952" x2="161.398" y2="128.952"/>
					<line style="fill:#EF758D;stroke:#EF758D;stroke-miterlimit:10;" x1="71.684" y1="133.636" x2="161.398" y2="133.636"/>
					<line style="fill:#EF758D;stroke:#EF758D;stroke-miterlimit:10;" x1="71.684" y1="138.32" x2="161.398" y2="138.32"/>
					<line style="fill:#EF758D;stroke:#EF758D;stroke-miterlimit:10;" x1="71.684" y1="143.005" x2="161.398" y2="143.005"/>
					<line style="fill:#EF758D;stroke:#EF758D;stroke-miterlimit:10;" x1="71.684" y1="147.689" x2="161.398" y2="147.689"/>
					<line style="fill:#EF758D;stroke:#EF758D;stroke-miterlimit:10;" x1="71.684" y1="152.373" x2="161.398" y2="152.373"/>
				</g>
			</g>
		</g>
	</g>
	<g>
		<defs>
			
				<ellipse id="SVGID_00000039848772602082914520000010293135040972643005_" transform="matrix(0.2243 -0.9745 0.9745 0.2243 99.1007 317.4365)" cx="248.953" cy="96.467" rx="56.54" ry="56.54"/>
		</defs>
		<use xlink:href="#SVGID_00000039848772602082914520000010293135040972643005_"  style="overflow:visible;fill:#F7D8BA;"/>
		<clipPath id="SVGID_00000039826421952897505340000002000299204058017680_">
			<use xlink:href="#SVGID_00000039848772602082914520000010293135040972643005_"  style="overflow:visible;"/>
		</clipPath>
		<g style="clip-path:url(#SVGID_00000039826421952897505340000002000299204058017680_);">
			<path style="fill:#D3445B;" d="M226.861,120.891l-2.4,30.66h-19.46c2.03-4.76,4.41-10.49,6.6-16.11
				c4.93-12.7,14.29-14.4,15.19-14.54C226.841,120.891,226.861,120.891,226.861,120.891z"/>
			<path style="fill:#D3445B;" d="M296.371,151.551h-19.99l-3.19-31.01c0.01,0,0.02,0.01,0.03,0.01
				c0.65,0.08,11.05,1.71,16.42,14.89C292.041,141.341,294.441,147.031,296.371,151.551z"/>
			<g>
				<path style="fill:#D3445B;" d="M278.401,151.551l-29.448,5.853l-26.072-5.853l0.1-28.97c1.13-0.7,2.47-1.25,3.81-1.68
					c3.21-1.02,6.35-1.31,6.35-1.31l17.48,1.76l17.48-1.76c0,0,2.37,0.22,5.09,0.95c0.01,0,0.02,0.01,0.03,0.01
					c1.7,0.45,3.54,1.11,5.03,2.03L278.401,151.551z"/>
				<g>
					<path style="fill:#E8B499;" d="M226.863,120.887l20.6-5.413h7.103l18.628,5.07l0,0c-9.526,8.93-33.171,16.25-45.266,0.759
						L226.863,120.887z"/>
					<path style="fill:#D3445B;" d="M221.112,142.321"/>
				</g>
			</g>
			<g>
				<path style="fill:#1E0B02;" d="M280.677,102.035c-0.195-1.627-0.066-3.295,0.343-4.863c2.079-7.968-0.299-14.754-4.498-19.825
					c-3.798-4.587-4.745-11.374-4.745-11.374l0,0c-2.79-9.192-12.242-15.57-20.844-15.57c-8.603,0-18.026,6.01-20.815,15.202l0,0
					c0,0-1.259,7.277-4.775,11.741c-4.07,5.169-6.577,11.858-4.498,19.825c0.409,1.568,0.538,3.236,0.342,4.863
					c-0.144,1.202-0.472,2.449-1.159,3.312h61.809C281.149,104.483,280.821,103.237,280.677,102.035z"/>
				<g>
					<path style="fill:#E8B499;" d="M240.215,84.546c0.094,3.34-2.537,6.125-5.878,6.22c-3.34,0.094-6.125-2.537-6.219-5.878
						c-0.094-3.34,2.537-6.125,5.878-6.219C237.336,78.574,240.121,81.205,240.215,84.546z"/>
					
						<path style="fill:none;stroke:#C47268;stroke-width:0.6887;stroke-linecap:round;stroke-linejoin:round;stroke-miterlimit:10;" d="
						M230.732,83.866c0,0,2.406-1.172,4.699,3.008"/>
				</g>
				<g>
					<path style="fill:#E8B499;" d="M262.307,84.717c0,3.342,2.709,6.051,6.051,6.051c3.342,0,6.051-2.709,6.051-6.051
						c0-3.342-2.709-6.051-6.051-6.051C265.017,78.666,262.307,81.375,262.307,84.717z"/>
					
						<path style="fill:none;stroke:#C47268;stroke-width:0.6887;stroke-linecap:round;stroke-linejoin:round;stroke-miterlimit:10;" d="
						M271.768,83.77c0,0-2.438-1.104-4.612,3.14"/>
				</g>
				<circle style="fill:#1E0B02;" cx="251.093" cy="73.195" r="19.004"/>
				<g>
					<path style="fill:#E8B499;" d="M257.107,96.795c0,0-2.618,2.403-5.006,2.994c-2.388,0.59-4.712-1.217-4.742-1.239
						c-0.029-0.022-2.792-2.092-2.792-2.092l-1.119,19.915l0.31,0.332c4.055,4.354,9.894,4.415,13.984,0.145l0.598-0.625
						L257.107,96.795z"/>
				</g>
				<path style="fill:#1E0B02;" d="M242.682,93.826c0,0,3.359,11.637,9.353,11.523c4.928-0.094,6.295-10.945,6.295-10.945
					L242.682,93.826z"/>
				<path style="fill:#E8B499;" d="M267.597,73.403c0.033,6.546-0.915,12.2-1.87,16.214c-0.935,3.93-3.608,6.687-7.394,8.914
					l-0.689,0.406c-4.006,2.357-9.196,2.437-13.287,0.207h0c-4.126-2.25-7.021-5.229-7.929-9.436
					c-1.651-7.653-1.87-16.137-1.87-16.137s-1.38-17.706,16.441-17.475C268.817,56.326,267.597,73.403,267.597,73.403z"/>
				<g>
					<g>
						
							<polyline style="fill:none;stroke:#C47268;stroke-width:0.6887;stroke-linecap:round;stroke-linejoin:round;stroke-miterlimit:10;" points="
							249.644,83.1 249.644,85.693 251.392,85.693 						"/>
						<path d="M237.54,73.257l9.422-0.849c0,0-0.844-2.441-4.653-2.045C238.411,70.767,237.54,73.257,237.54,73.257z"/>
						<path d="M263.44,73.257l-9.422-0.849c0,0,0.844-2.441,4.653-2.045C262.569,70.767,263.44,73.257,263.44,73.257z"/>
						<path style="fill:#FFFFFF;" d="M245.374,88.085h10.288c0,0-0.395,2.683-5.328,2.683
							C246.285,90.768,245.374,88.085,245.374,88.085z"/>
						
							<path style="fill:none;stroke:#1E0B02;stroke-width:0.9565;stroke-linecap:round;stroke-linejoin:round;stroke-miterlimit:10;" d="
							M245.853,79.61c0,0-2.437-1.993-4.577,0"/>
						
							<path style="fill:none;stroke:#1E0B02;stroke-width:0.9565;stroke-linecap:round;stroke-linejoin:round;stroke-miterlimit:10;" d="
							M259.624,79.61c0,0-1.909-2.045-4.46,0"/>
					</g>
					<g>
						<path style="opacity:0.23;fill:#FFFFFF;" d="M241.287,73.096l6.906,9.375c0,0-2.083,3.981-5.4,3.539l-6.97-9.146
							C235.822,76.864,237.706,72.843,241.287,73.096z"/>
						<path style="opacity:0.23;fill:#FFFFFF;" d="M258.272,73.096l6.906,9.375c0,0-2.083,3.981-5.4,3.539l-6.97-9.146
							C252.807,76.864,254.691,72.843,258.272,73.096z"/>
						<path style="fill:none;stroke:#FFFFFF;stroke-width:0.4927;stroke-miterlimit:10;" d="M248.741,79.61
							c0,3.729-3.023,6.753-6.752,6.753c-3.729,0-6.752-3.023-6.752-6.753c0-3.729,3.023-6.752,6.752-6.752
							C245.718,72.857,248.741,75.881,248.741,79.61z"/>
						<path style="fill:none;stroke:#FFFFFF;stroke-width:0.4927;stroke-miterlimit:10;" d="M265.745,79.61
							c0,3.729-3.023,6.753-6.752,6.753c-3.729,0-6.752-3.023-6.752-6.753c0-3.729,3.023-6.752,6.752-6.752
							C262.721,72.857,265.745,75.881,265.745,79.61z"/>
						<path style="fill:none;stroke:#FFFFFF;stroke-width:0.4927;stroke-miterlimit:10;" d="M248.741,79.61c0,0,1.929-0.71,3.499,0"
							/>
					</g>
				</g>
				<path style="fill:#1E0B02;" d="M232.84,69.379c0,0,15.884-3.024,19.164-14.88C252.004,54.499,235.106,48.504,232.84,69.379z"/>
				<path style="fill:#1E0B02;" d="M267.597,69.379c0,0-15.884-3.024-19.164-14.88C248.433,54.499,265.332,48.504,267.597,69.379z"
					/>
			</g>
		</g>
	</g>
	<g>
		<defs>
			
				<ellipse id="SVGID_00000085235915349724696250000005668314038032623511_" transform="matrix(0.7071 -0.7071 0.7071 0.7071 45.0585 301.7144)" cx="386.731" cy="96.467" rx="56.54" ry="56.54"/>
		</defs>
		<use xlink:href="#SVGID_00000085235915349724696250000005668314038032623511_"  style="overflow:visible;fill:#F7D8BA;"/>
		<clipPath id="SVGID_00000060021413501907344110000013981663629734186140_">
			<use xlink:href="#SVGID_00000085235915349724696250000005668314038032623511_"  style="overflow:visible;"/>
		</clipPath>
		<g style="clip-path:url(#SVGID_00000060021413501907344110000013981663629734186140_);">
			<path style="fill:#FFFFFF;" d="M442.171,156.01h-109.09c5.03-22.58,18.53-27.09,18.53-27.09l26.02-12.17l9.86-0.09h0.27
				l9.87,0.09l26.02,12.17C423.65,128.92,437.141,133.43,442.171,156.01z"/>
			<g>
				<path style="fill:#1E0B02;" d="M393.587,51.886c0,0,9.079-4.046,12.298,3.604c3.098,7.365-9.207,14.383-9.207,14.383
					L393.587,51.886z"/>
				<g>
					<path style="fill:#C67D69;" d="M376.606,82.42c0.096,3.401-2.583,6.237-5.984,6.333c-3.401,0.096-6.237-2.583-6.333-5.984
						c-0.096-3.401,2.583-6.237,5.984-6.333S376.509,79.019,376.606,82.42z"/>
					
						<path style="fill:none;stroke:#A8523F;stroke-width:0.7482;stroke-linecap:round;stroke-linejoin:round;stroke-miterlimit:10;" d="
						M366.949,81.729c0,0,2.45-1.193,4.785,3.063"/>
				</g>
				<g>
					<circle style="fill:#C67D69;" cx="405.261" cy="82.594" r="6.161"/>
					
						<path style="fill:none;stroke:#A8523F;stroke-width:0.7482;stroke-linecap:round;stroke-linejoin:round;stroke-miterlimit:10;" d="
						M408.733,81.63c0,0-2.483-1.123-4.696,3.197"/>
				</g>
				<g>
					<path style="fill:#C67D69;" d="M395.758,96.791c0,0-3.474,2.451-6.639,3.056c-3.165,0.605-6.243-1.232-6.282-1.255
						c-0.039-0.022-3.696-2.126-3.696-2.126l-1.514,20.279l0.41,0.338c5.367,4.427,13.104,4.48,18.531,0.126l0.794-0.637
						L395.758,96.791z"/>
				</g>
				<path style="fill:#1E0B02;" d="M377.627,94.334c0,0,3.452,11.3,11.396,11.175c6.53-0.103,7.583-11.175,7.583-11.175H377.627z"/>
				<path style="fill:#C67D69;" d="M404.49,71.869c0.035,6.964-0.929,12.979-1.901,17.249c-0.951,4.181-3.672,7.113-7.527,9.482
					l-0.702,0.431c-4.078,2.506-9.363,2.591-13.529,0.217l0,0c-4.201-2.394-7.15-5.564-8.076-10.041
					c-1.683-8.142-1.908-17.168-1.908-17.168s-2.365-18.838,15.779-18.588C404.772,53.701,404.49,71.869,404.49,71.869z"/>
				<g>
					<circle style="fill:#1E0B02;" cx="379.842" cy="77.394" r="1.468"/>
					<circle style="fill:#1E0B02;" cx="394.249" cy="77.394" r="1.468"/>
					
						<polyline style="fill:none;stroke:#A8523F;stroke-width:0.7482;stroke-linecap:round;stroke-linejoin:round;stroke-miterlimit:10;" points="
						385.714,79.538 385.714,83.588 388.33,83.588 					"/>
					<path d="M374.372,71.189l9.594-0.865c0,0-0.859-2.486-4.738-2.083C375.259,68.654,374.372,71.189,374.372,71.189z"/>
					<path d="M399.1,71.189l-9.593-0.865c0,0,0.859-2.486,4.738-2.083C398.213,68.654,399.1,71.189,399.1,71.189z"/>
					<path style="fill:#FFFFFF;" d="M382.43,86.942h9.464c0,0-0.445,2.899-4.872,2.899C382.594,89.841,382.43,86.942,382.43,86.942z
						"/>
				</g>
				<g>
					<path style="fill:#1E0B02;" d="M371.466,80.954c0,0,2.686-20.374,1.372-23.731C372.838,57.222,363.7,64.782,371.466,80.954z"/>
					<path style="fill:#1E0B02;" d="M403.805,80.79c0,0-3.023-19.456-2.185-25.054C401.621,55.736,410.445,63.552,403.805,80.79z"/>
				</g>
				<path style="fill:#1E0B02;" d="M400.989,54.349l-8.366-1.265l-0.737-1.447l-4.415,0.668l-4.415-0.668l-0.737,1.447l-8.365,1.265
					l-1.116,4.476l0.275,5.16c0,0,1.324-5.853,5.934-4.687c1.087,0.275,2.388,0.73,3.91,1.037c1.421,0.31,2.776,0.45,4.053,0.472
					c0.151,0.004,0.308,0,0.461,0.001c0.154-0.001,0.31,0.003,0.461-0.001c1.278-0.022,2.632-0.162,4.053-0.472
					c1.521-0.307,2.851-0.669,3.91-1.037c4.273-1.487,5.847,4.42,5.847,4.42l0.362-4.893L400.989,54.349z"/>
				<path style="fill:#1E0B02;" d="M400.822,59.441c0,0-5.441,4.855-12.412,1.125c0,0-17.734,10.925-22.74-0.968
					c-4.173-9.915,13.15-23.37,31.023-8.208L400.822,59.441z"/>
			</g>
			<path style="fill:#C67D69;" d="M377.627,116.746l-5.813,2.671c0,0-0.063,9.746,15.733,9.24
				c16.197-0.518,16.101-9.093,16.101-9.093l-6.287-2.992L377.627,116.746z"/>
		</g>
	</g>
	<g>
		<defs>
			
				<ellipse id="SVGID_00000073692799182149571780000013665653009872216235_" transform="matrix(0.2204 -0.9754 0.9754 0.2204 -160.67 309.2415)" cx="113.118" cy="255.132" rx="56.54" ry="56.54"/>
		</defs>
		<use xlink:href="#SVGID_00000073692799182149571780000013665653009872216235_"  style="overflow:visible;fill:#F7D8BA;"/>
		<clipPath id="SVGID_00000181082045836918918310000009980501176509365681_">
			<use xlink:href="#SVGID_00000073692799182149571780000013665653009872216235_"  style="overflow:visible;"/>
		</clipPath>
		<g style="clip-path:url(#SVGID_00000181082045836918918310000009980501176509365681_);">
			<g>
				<path style="fill:#1E0B02;" d="M101.84,207.006c0,0,7.942-10.747,22.014-3.576c15.428,7.862,7.091,24.809,7.091,24.809
					l-33.155-6.281L101.84,207.006z"/>
				<path style="fill:#1E0B02;" d="M95.209,228.322c0,0-8.673-17.03,6.631-21.316l2.751,9.134L95.209,228.322z"/>
				<g>
					<path style="fill:#E8B499;" d="M102.562,236.182c0.096,3.401-2.583,6.237-5.984,6.333c-3.401,0.096-6.237-2.583-6.333-5.984
						c-0.096-3.401,2.583-6.237,5.985-6.333C99.63,230.101,102.466,232.781,102.562,236.182z"/>
					
						<path style="fill:none;stroke:#C47268;stroke-width:0.6887;stroke-linecap:round;stroke-linejoin:round;stroke-miterlimit:10;" d="
						M92.905,235.49c0,0,2.45-1.193,4.785,3.063"/>
				</g>
				<g>
					<path style="fill:#E8B499;" d="M125.056,236.356c0,3.403,2.758,6.161,6.161,6.161c3.403,0,6.161-2.758,6.161-6.161
						c0-3.403-2.758-6.161-6.161-6.161C127.815,230.195,125.056,232.953,125.056,236.356z"/>
					
						<path style="fill:none;stroke:#C47268;stroke-width:0.6887;stroke-linecap:round;stroke-linejoin:round;stroke-miterlimit:10;" d="
						M134.689,235.391c0,0-2.483-1.124-4.696,3.197"/>
				</g>
				<g>
					<path style="fill:#E8B499;" d="M121.714,250.553c0,0-3.474,2.451-6.639,3.056c-3.165,0.605-6.243-1.232-6.282-1.255
						c-0.039-0.022-3.696-2.126-3.696-2.126l-1.514,20.279l0.41,0.338c5.367,4.427,13.104,4.48,18.531,0.126l0.794-0.637
						L121.714,250.553z"/>
				</g>
				<path style="fill:#1E0B02;" d="M103.583,248.096c0,0,3.452,11.3,11.396,11.175c6.53-0.103,7.583-11.175,7.583-11.175H103.583z"
					/>
				<path style="fill:#E8B499;" d="M130.446,225.63c0.035,6.964-0.929,12.979-1.9,17.249c-0.951,4.181-4.629,7.113-8.483,9.481
					l-0.702,0.431c-4.078,2.506-7.45,2.591-11.616,0.217l0,0c-4.201-2.394-8.107-5.564-9.032-10.041
					c-1.683-8.142-1.908-17.168-1.908-17.168s-2.365-18.838,15.779-18.588C130.728,207.463,130.446,225.63,130.446,225.63z"/>
				<g>
					<path style="fill:#1E0B02;" d="M107.267,231.156c0,0.811-0.657,1.468-1.468,1.468c-0.811,0-1.468-0.657-1.468-1.468
						c0-0.811,0.658-1.468,1.468-1.468C106.609,229.688,107.267,230.345,107.267,231.156z"/>
					<path style="fill:#1E0B02;" d="M121.673,231.156c0,0.811-0.657,1.468-1.468,1.468c-0.811,0-1.468-0.657-1.468-1.468
						c0-0.811,0.658-1.468,1.468-1.468C121.016,229.688,121.673,230.345,121.673,231.156z"/>
					
						<polyline style="fill:none;stroke:#C47268;stroke-width:0.6887;stroke-linecap:round;stroke-linejoin:round;stroke-miterlimit:10;" points="
						111.67,234.997 111.67,237.35 113.575,237.35 					"/>
					<path d="M100.328,224.95l9.593-0.865c0,0-0.859-2.486-4.738-2.083C101.215,222.415,100.328,224.95,100.328,224.95z"/>
					<path d="M125.056,224.95l-9.593-0.865c0,0,0.859-2.486,4.738-2.083C124.169,222.415,125.056,224.95,125.056,224.95z"/>
					<path style="fill:#FFFFFF;" d="M108.386,240.703h9.464c0,0-0.445,2.899-4.872,2.899
						C108.55,243.603,108.386,240.703,108.386,240.703z"/>
				</g>
				<g>
					<path style="fill:#1E0B02;" d="M97.422,234.715c0,0,0.711-23.075,0.416-23.731C97.838,210.984,89.656,218.543,97.422,234.715z"
						/>
					<path style="fill:#1E0B02;" d="M129.762,234.551l-1.228-25.054C128.533,209.497,136.401,217.314,129.762,234.551z"/>
				</g>
				<path style="fill:#1E0B02;" d="M105.014,208.94c0,0-5.629,1.525-5.437,7.052c0.192,5.527-3.546,10.959-3.546,10.959
					l-1.707-5.523C94.323,221.428,93.006,211.135,105.014,208.94z"/>
				<path style="fill:#1E0B02;" d="M103.594,209.397c0,0,4.215-2.391,8.399,2.87c3.573,4.493,12.995,9.12,18.573,4.716
					c0,0-3.553-12.717-17.416-12.458S103.594,209.397,103.594,209.397z"/>
			</g>
			<g>
				<g>
					<path style="fill:#EF758D;" d="M160.96,313.261h-95.4c1.74-7.22,3.53-13.64,5.3-18.64c2.62-7.38,6.39-11.7,9.51-14.16
						c3.11-2.47,5.57-3.09,5.57-3.09l6.62-2.77l41.88,0.04l6.14,2.73c0,0,9.84,2.48,15.08,17.25
						C157.43,299.621,159.22,306.041,160.96,313.261z"/>
					<g>
						<path style="fill:#E8B499;" d="M114.005,265.78l20.439,8.86c0,0-21,18.978-41.882-0.042L114.005,265.78z"/>
						<path style="fill:none;stroke:#FFFFFF;stroke-width:1.9384;stroke-miterlimit:10;" d="M92.562,274.598
							c0,0,7.276,8.609,20.888,8.609s20.994-8.566,20.994-8.566"/>
					</g>
				</g>
			</g>
		</g>
	</g>
	<g>
		<defs>
			
				<ellipse id="SVGID_00000132792767617531222550000001545049825707006600_" transform="matrix(0.2243 -0.9745 0.9745 0.2243 -55.1509 440.9754)" cx="249.429" cy="255.132" rx="56.54" ry="56.54"/>
		</defs>
		<use xlink:href="#SVGID_00000132792767617531222550000001545049825707006600_"  style="overflow:visible;fill:#F7D8BA;"/>
		<clipPath id="SVGID_00000178200032328529756600000011366015429831138220_">
			<use xlink:href="#SVGID_00000132792767617531222550000001545049825707006600_"  style="overflow:visible;"/>
		</clipPath>
		<g style="clip-path:url(#SVGID_00000178200032328529756600000011366015429831138220_);">
			<path style="fill:#A74B22;" d="M272.027,222.264c-2.527-4.38-5.856-7.105-8.966-8.799c-4.017-2.188-8.694-2.837-13.205-2.079
				l-0.001,0l0,0c-4.511-0.758-9.188-0.108-13.205,2.079c-3.11,1.694-6.439,4.418-8.966,8.799
				c-6.429,11.143-6.286,46.143-6.286,46.143l27.038,1.681l-0.004,0.176l1.422-0.088l1.424,0.089l-0.004-0.177l27.038-1.68
				C278.313,268.407,278.456,233.407,272.027,222.264z"/>
			<path style="fill:#28466D;" d="M288.688,291.34c-1.831-4.88-7.429-11.29-18.271-12.99l-20.208-3.967L230,278.35
				c-10.843,1.7-16.44,8.11-18.271,12.99l-4.235,19.12h18.544h1.355h22.815h22.815h1.355h18.544L288.688,291.34z"/>
			<path style="fill:#E0A78F;" d="M229.37,278.558l21.915-4.443l20.449,4.382l-0.454,0.326
				C258.786,287.815,241.968,287.406,229.37,278.558L229.37,278.558z"/>
			<g>
				<g>
					<path style="fill:#E0A78F;" d="M239.278,246.139c0.126,3.264-2.418,6.013-5.682,6.139c-3.264,0.126-6.013-2.418-6.139-5.682
						c-0.126-3.264,2.418-6.013,5.682-6.139C236.404,240.33,239.153,242.874,239.278,246.139z"/>
					
						<path style="fill:none;stroke:#B9635E;stroke-width:0.6612;stroke-linecap:round;stroke-linejoin:round;stroke-miterlimit:10;" d="
						M230.002,245.57c0,0,2.34-1.17,4.624,2.893"/>
				</g>
				<g>
					<path style="fill:#E0A78F;" d="M260.875,246.083c0.034,3.267,2.709,5.887,5.976,5.854c3.267-0.034,5.887-2.709,5.854-5.976
						c-0.034-3.267-2.709-5.887-5.976-5.854C263.462,240.141,260.841,242.816,260.875,246.083z"/>
					
						<path style="fill:none;stroke:#B9635E;stroke-width:0.6612;stroke-linecap:round;stroke-linejoin:round;stroke-miterlimit:10;" d="
						M270.113,245.062c0,0-2.394-1.054-4.477,3.116"/>
				</g>
				
					<ellipse transform="matrix(0.9999 -0.0103 0.0103 0.9999 -2.3759 2.5865)" style="fill:#A74B22;" cx="249.764" cy="231.81" rx="20.345" ry="18.99"/>
				<g>
					<path style="fill:#E0A78F;" d="M255.906,257.941c0,0-2.534,2.376-4.861,2.977c-2.327,0.601-4.616-1.142-4.645-1.164
						c-0.029-0.021-2.749-2.017-2.749-2.017l-0.893,19.478l0.306,0.322c4.006,4.215,9.711,4.215,13.664,0l0.578-0.616
						L255.906,257.941z"/>
				</g>
				<path style="fill:#1E0B02;" d="M241.782,255.185c0,0,3.399,11.341,9.255,11.169c4.814-0.142,6.04-10.762,6.04-10.762
					L241.782,255.185z"/>
				<path style="fill:#E0A78F;" d="M265.931,234.971c0.098,6.398-0.771,11.935-1.664,15.868c-0.874,3.851-3.459,6.572-7.138,8.788
					l-0.67,0.403c-3.892,2.344-8.965,2.475-12.986,0.336l0,0c-4.055-2.158-6.916-5.04-7.846-9.144
					c-1.691-7.464-1.991-15.755-1.991-15.755s-1.527-17.294,15.894-17.248C266.952,218.265,265.931,234.971,265.931,234.971z"/>
				<g>
					
						<polyline style="fill:none;stroke:#B9635E;stroke-width:0.6612;stroke-linecap:round;stroke-linejoin:round;stroke-miterlimit:10;" points="
						248.473,243.998 248.499,246.499 250.208,246.481 					"/>
					<path d="M236.55,235.131l9.201-0.925c0,0-0.849-2.378-4.569-1.952C237.376,232.688,236.55,235.131,236.55,235.131z"/>
					<path d="M261.866,234.869l-9.218-0.735c0,0,0.8-2.395,4.528-2.046C260.99,232.445,261.866,234.869,261.866,234.869z"/>
					<path style="fill:#1E0B02;" d="M243.76,240.659c0.008,0.778-0.617,1.416-1.395,1.424c-0.778,0.008-1.416-0.617-1.424-1.395
						c-0.008-0.779,0.617-1.416,1.395-1.424C243.115,239.256,243.752,239.88,243.76,240.659z"/>
					<path style="fill:#1E0B02;" d="M257.591,240.516c0.008,0.779-0.617,1.416-1.395,1.424c-0.778,0.008-1.416-0.617-1.424-1.395
						c-0.008-0.779,0.617-1.416,1.395-1.424C256.945,239.113,257.583,239.738,257.591,240.516z"/>
					
						<path style="fill:none;stroke:#000000;stroke-width:0.6612;stroke-linecap:round;stroke-linejoin:round;stroke-miterlimit:10;" d="
						M244.224,250.092c0,0,3.936,2.092,10.226-0.106"/>
				</g>
			</g>
			<path style="fill:#A74B22;" d="M232.313,232.053c0,0,4.677-1.859,8.628-2.002l0.737-6.429l1.643,6.572h6.888l1.184-4.643
				l1.256,4.643l8.226,0.428l0.992-4.071l0.668,4.357l5.34,0.357c0,0-3.054-14-15.697-15.286
				C239.535,214.694,231.378,224.269,232.313,232.053z"/>
		</g>
	</g>
	<g>
		<defs>
			<circle id="SVGID_00000074417269766162555480000007935182696145875894_" cx="386.08" cy="256.054" r="56.54"/>
		</defs>
		<use xlink:href="#SVGID_00000074417269766162555480000007935182696145875894_"  style="overflow:visible;fill:#F7D8BA;"/>
		<clipPath id="SVGID_00000136392229874612466900000007193254691827593662_">
			<use xlink:href="#SVGID_00000074417269766162555480000007935182696145875894_"  style="overflow:visible;"/>
		</clipPath>
		<g style="clip-path:url(#SVGID_00000136392229874612466900000007193254691827593662_);">
			<g>
				<path style="fill:#E8B499;" d="M375.382,237.503c0.096,3.401-2.583,6.237-5.984,6.333c-3.401,0.096-6.237-2.583-6.333-5.984
					c-0.096-3.401,2.583-6.237,5.984-6.333C372.451,231.423,375.286,234.102,375.382,237.503z"/>
				
					<path style="fill:none;stroke:#C47268;stroke-width:0.6887;stroke-linecap:round;stroke-linejoin:round;stroke-miterlimit:10;" d="
					M365.726,236.811c0,0,2.45-1.193,4.785,3.063"/>
			</g>
			<g>
				<path style="fill:#E8B499;" d="M397.877,237.677c0,3.403,2.758,6.161,6.161,6.161c3.403,0,6.161-2.758,6.161-6.161
					s-2.758-6.161-6.161-6.161C400.635,231.516,397.877,234.275,397.877,237.677z"/>
				
					<path style="fill:none;stroke:#C47268;stroke-width:0.6887;stroke-linecap:round;stroke-linejoin:round;stroke-miterlimit:10;" d="
					M407.51,236.713c0,0-2.483-1.124-4.696,3.197"/>
			</g>
			<g>
				<path style="fill:#E8B499;" d="M394.535,251.874c0,0-3.474,2.451-6.639,3.056c-3.165,0.605-6.243-1.232-6.282-1.255
					c-0.039-0.022-3.696-2.126-3.696-2.126l-1.514,20.279l0.41,0.338c5.367,4.427,13.104,4.48,18.531,0.126l0.794-0.637
					L394.535,251.874z"/>
			</g>
			<path style="fill:#1E0B02;" d="M376.404,249.417c0,0,3.452,11.3,11.396,11.175c6.53-0.103,7.583-11.175,7.583-11.175H376.404z"/>
			<path style="fill:#E8B499;" d="M403.755,223.28c0.035,6.964-1.418,16.651-2.389,20.921c-0.951,4.181-4.629,7.113-8.483,9.481
				l-0.702,0.431c-4.078,2.506-7.45,2.591-11.616,0.217l0,0c-4.201-2.394-8.107-5.564-9.032-10.041
				c-1.683-8.142-2.962-12.709-3.415-17.027c-0.745-7.11-0.453-22.404,17.775-22.4C404.04,204.865,403.755,223.28,403.755,223.28z"
				/>
			<path style="fill:#1E0B02;" d="M380.087,232.477c0,0.811-0.657,1.468-1.468,1.468c-0.811,0-1.468-0.657-1.468-1.468
				c0-0.811,0.658-1.468,1.468-1.468C379.43,231.009,380.087,231.666,380.087,232.477z"/>
			<path style="fill:#1E0B02;" d="M394.494,232.477c0,0.811-0.657,1.468-1.468,1.468c-0.811,0-1.468-0.657-1.468-1.468
				c0-0.811,0.658-1.468,1.468-1.468C393.836,231.009,394.494,231.666,394.494,232.477z"/>
			
				<polyline style="fill:none;stroke:#C47268;stroke-width:0.6887;stroke-linecap:round;stroke-linejoin:round;stroke-miterlimit:10;" points="
				384.49,236.318 384.49,238.671 386.396,238.671 			"/>
			<path d="M373.149,226.271l9.593-0.865c0,0-0.859-2.486-4.738-2.082C374.035,223.736,373.149,226.271,373.149,226.271z"/>
			<path d="M397.877,226.271l-9.594-0.865c0,0,0.859-2.486,4.738-2.082C396.99,223.736,397.877,226.271,397.877,226.271z"/>
			<g>
				<g>
					<path style="fill:#FFFFFF;" d="M433.78,314.582h-95.4c1.74-7.22,3.53-13.64,5.3-18.64c2.62-7.38,6.39-11.7,9.51-14.16
						c3.11-2.47,5.57-3.09,5.57-3.09l6.62-2.77l41.88,0.04l6.14,2.73c0,0,9.84,2.48,15.08,17.25
						C430.251,300.942,432.041,307.362,433.78,314.582z"/>
					<g>
						<path style="fill:#E8B499;" d="M386.826,267.101l20.439,8.86c0,0-21,18.978-41.882-0.042L386.826,267.101z"/>
						<path style="fill:none;stroke:#FFFFFF;stroke-width:1.9384;stroke-miterlimit:10;" d="M365.383,275.919
							c0,0,7.276,8.609,20.888,8.609s20.994-8.566,20.994-8.566"/>
					</g>
				</g>
			</g>
			<path style="fill:#A74B22;" d="M401.843,236.048c0,0-0.321-0.17-1.446,1.629s-2.036,6.621-2.036,6.621s-1.067-2.25-3.882-3.696
				c-2.57-1.321-7.968-0.59-8.887-0.453c-1.426-0.248-4.799-0.664-6.973,0.453c-2.814,1.446-3.882,3.696-3.882,3.696
				s-0.911-4.821-2.036-6.621s-1.447-1.629-1.447-1.629s-0.589,9.375,1.929,14.946c2.211,4.893,10.693,6.918,12.71,7.018
				c0,0,11.503-1.446,14.021-7.018C402.432,245.423,401.843,236.048,401.843,236.048z"/>
			<path style="fill:#FFFFFF;" d="M381.207,242.025h9.464c0,0-0.445,2.899-4.872,2.899
				C381.371,244.924,381.207,242.025,381.207,242.025z"/>
		</g>
	</g>
	<g>
		<defs>
			
				<ellipse id="SVGID_00000029031338374142559950000012859357393403456144_" transform="matrix(0.2399 -0.9708 0.9708 0.2399 -305.3186 416.9561)" cx="113.613" cy="403.458" rx="56.54" ry="56.54"/>
		</defs>
		<use xlink:href="#SVGID_00000029031338374142559950000012859357393403456144_"  style="overflow:visible;fill:#FFD9BA;"/>
		<clipPath id="SVGID_00000049904860580975932870000005976552706494456231_">
			<use xlink:href="#SVGID_00000029031338374142559950000012859357393403456144_"  style="overflow:visible;"/>
		</clipPath>
		<g style="clip-path:url(#SVGID_00000049904860580975932870000005976552706494456231_);">
			<g>
				<circle style="fill:#E8B499;" cx="131.588" cy="392.821" r="6.161"/>
				
					<path style="fill:none;stroke:#C47268;stroke-width:0.6887;stroke-linecap:round;stroke-linejoin:round;stroke-miterlimit:10;" d="
					M135.06,391.856c0,0-2.482-1.124-4.696,3.197"/>
			</g>
			<g>
				<path style="fill:#E8B499;" d="M102.933,392.647c0.096,3.401-2.583,6.236-5.984,6.333c-3.401,0.096-6.237-2.583-6.333-5.984
					c-0.096-3.401,2.583-6.237,5.984-6.333C100.001,386.566,102.837,389.245,102.933,392.647z"/>
				
					<path style="fill:none;stroke:#C47268;stroke-width:0.6887;stroke-linecap:round;stroke-linejoin:round;stroke-miterlimit:10;" d="
					M93.276,391.955c0,0,2.45-1.193,4.785,3.063"/>
			</g>
			<g>
				<path style="fill:#EF758D;" d="M141.313,459.664h-55.52l0.1-28.97c1.13-0.7,2.47-1.25,3.81-1.68c3.21-1.02,6.35-1.31,6.35-1.31
					l17.48,1.76l17.48-1.76c0,0,2.37,0.22,5.09,0.95c0.01,0,0.02,0.01,0.03,0.01c1.7,0.45,3.54,1.11,5.03,2.03L141.313,459.664z"/>
				<g>
					<path style="fill:#E8B499;" d="M89.776,428.999l20.599-5.413h7.103l18.628,5.069l0,0c-9.526,8.93-33.171,16.25-45.266,0.759
						L89.776,428.999z"/>
					
						<path style="fill:none;stroke:#000000;stroke-width:0.9528;stroke-linecap:round;stroke-linejoin:round;stroke-miterlimit:10;" d="
						M84.025,450.434"/>
				</g>
			</g>
			<g>
				<path style="fill:#E8B499;" d="M120.132,405.118c0,0-2.666,2.447-5.097,3.048c-2.431,0.601-4.798-1.24-4.828-1.262
					c-0.03-0.022-2.843-2.13-2.843-2.13l-1.14,20.277l0.315,0.338c4.129,4.434,10.074,4.495,14.238,0.147l0.609-0.636
					L120.132,405.118z"/>
			</g>
			<path style="fill:#EF758D;" d="M89.773,429.004l-2.4,30.66h-19.46c2.03-4.76,4.41-10.49,6.6-16.11
				c4.93-12.7,14.29-14.4,15.19-14.54C89.753,429.004,89.773,429.004,89.773,429.004z"/>
			<path style="fill:#EF758D;" d="M159.283,459.664h-19.99l-3.19-31.01c0.01,0,0.02,0.01,0.03,0.01
				c0.65,0.08,11.05,1.71,16.42,14.89C154.953,449.454,157.353,455.144,159.283,459.664z"/>
			<path style="fill:#28466D;" d="M113.881,443.648c17.61-0.745,29.011-11.688,29.011-11.688c-1.17-4.714-6.802-8.374-6.802-8.374
				s0.745-3.055-1.025-5.483c-1.77-2.428,0.885-6,3.393-16.008c2.508-10.008,0.443-25.992-5.9-36.992
				c-6.336-10.989-19.072-10.145-19.098-10.143c-0.026-0.002-12.762-0.846-19.098,10.143c-6.343,11-8.408,26.983-5.9,36.992
				c2.508,10.008,5.163,13.58,3.393,16.008c-1.77,2.429-1.026,5.483-1.026,5.483s-5.633,3.66-6.802,8.374
				c0,0,11.401,10.942,29.011,11.688l0,0.036c0.142-0.003,0.281-0.013,0.423-0.018c0.142,0.005,0.28,0.015,0.423,0.018
				L113.881,443.648z"/>
			
				<ellipse transform="matrix(0.239 -0.971 0.971 0.239 -283.2833 400.7276)" style="fill:#28466D;" cx="114.008" cy="381.088" rx="19.35" ry="19.35"/>
			<path style="fill:#1E0B02;" d="M105.444,402.095c0,0,3.42,11.849,9.523,11.733c5.017-0.096,6.41-11.144,6.41-11.144
				L105.444,402.095z"/>
			<path style="fill:#E8B499;" d="M130.813,381.301c0.034,6.665-0.932,12.422-1.904,16.51c-0.952,4.002-3.674,6.808-7.529,9.076
				l-0.702,0.413c-4.079,2.399-9.364,2.482-13.529,0.21h0c-4.201-2.291-7.149-5.324-8.073-9.608
				c-1.681-7.792-1.904-16.431-1.904-16.431s-1.405-18.029,16.74-17.794C132.055,363.912,130.813,381.301,130.813,381.301z"/>
			<g>
				<g>
					
						<polyline style="fill:none;stroke:#C47268;stroke-width:0.6887;stroke-linecap:round;stroke-linejoin:round;stroke-miterlimit:10;" points="
						112.533,391.175 112.533,393.815 114.313,393.815 					"/>
					<path d="M100.209,381.151l9.593-0.865c0,0-0.859-2.486-4.738-2.082C101.096,378.617,100.209,381.151,100.209,381.151z"/>
					<path d="M126.58,381.151l-9.593-0.865c0,0,0.859-2.486,4.738-2.082C125.694,378.617,126.58,381.151,126.58,381.151z"/>
					<path style="fill:#FFFFFF;" d="M108.185,396.25h10.475c0,0-0.402,2.732-5.425,2.732
						C109.112,398.982,108.185,396.25,108.185,396.25z"/>
					
						<path style="fill:none;stroke:#1E0B02;stroke-width:0.9565;stroke-linecap:round;stroke-linejoin:round;stroke-miterlimit:10;" d="
						M108.673,387.62c0,0-2.482-2.03-4.66,0"/>
					
						<path style="fill:none;stroke:#1E0B02;stroke-width:0.9565;stroke-linecap:round;stroke-linejoin:round;stroke-miterlimit:10;" d="
						M122.694,387.62c0,0-1.944-2.082-4.542,0"/>
				</g>
				<g>
					<path style="opacity:0.23;fill:#FFFFFF;" d="M104.023,380.988l7.031,9.546c0,0-2.121,4.054-5.499,3.603l-7.097-9.313
						C98.459,384.825,100.378,380.73,104.023,380.988z"/>
					<path style="opacity:0.23;fill:#FFFFFF;" d="M121.318,380.988l7.031,9.546c0,0-2.121,4.054-5.499,3.603l-7.097-9.313
						C115.754,384.825,117.672,380.73,121.318,380.988z"/>
					<path style="fill:none;stroke:#FFFFFF;stroke-width:0.4927;stroke-miterlimit:10;" d="M111.613,387.62
						c0,3.797-3.078,6.875-6.875,6.875c-3.797,0-6.875-3.078-6.875-6.875c0-3.797,3.078-6.875,6.875-6.875
						C108.535,380.745,111.613,383.823,111.613,387.62z"/>
					<path style="fill:none;stroke:#FFFFFF;stroke-width:0.4927;stroke-miterlimit:10;" d="M128.927,387.62
						c0,3.797-3.078,6.875-6.875,6.875c-3.797,0-6.875-3.078-6.875-6.875c0-3.797,3.078-6.875,6.875-6.875
						C125.849,380.745,128.927,383.823,128.927,387.62z"/>
					<path style="fill:none;stroke:#FFFFFF;stroke-width:0.4927;stroke-miterlimit:10;" d="M111.613,387.62c0,0,1.964-0.723,3.563,0
						"/>
				</g>
			</g>
			<path style="fill:#28466D;" d="M130.813,377.203c-1.845-17.001-13.214-16.498-17.695-15.616
				c-4.48-0.882-15.85-1.385-17.695,15.616c0,0,4.203-0.801,8.766-3.185c5.571-2.911,12.286-2.911,17.858,0
				C126.61,376.403,130.813,377.203,130.813,377.203z"/>
		</g>
	</g>
	<g>
		<defs>
			
				<ellipse id="SVGID_00000013173577720818550160000000660824170351960488_" transform="matrix(0.7071 -0.7071 0.7071 0.7071 -212.269 294.453)" cx="249.302" cy="403.458" rx="56.54" ry="56.54"/>
		</defs>
		<use xlink:href="#SVGID_00000013173577720818550160000000660824170351960488_"  style="overflow:visible;fill:#F7D8BA;"/>
		<clipPath id="SVGID_00000170254400382276587550000015870042814432772282_">
			<use xlink:href="#SVGID_00000013173577720818550160000000660824170351960488_"  style="overflow:visible;"/>
		</clipPath>
		<g style="clip-path:url(#SVGID_00000170254400382276587550000015870042814432772282_);">
			<path style="fill:#4570B4;" d="M303.978,463.001h-109.09c5.03-22.58,18.53-27.09,18.53-27.09l26.02-12.17l9.86-0.09h0.27
				l9.87,0.09l26.02,12.17C285.458,435.911,298.948,440.421,303.978,463.001z"/>
			<g>
				<path style="fill:#C67D69;" d="M238.414,389.411c0.096,3.401-2.583,6.237-5.984,6.333c-3.401,0.096-6.237-2.583-6.333-5.984
					c-0.096-3.401,2.583-6.237,5.984-6.333S238.317,386.01,238.414,389.411z"/>
				
					<path style="fill:none;stroke:#A8523F;stroke-width:0.7482;stroke-linecap:round;stroke-linejoin:round;stroke-miterlimit:10;" d="
					M228.757,388.72c0,0,2.45-1.193,4.785,3.063"/>
			</g>
			<g>
				<circle style="fill:#C67D69;" cx="267.069" cy="389.586" r="6.161"/>
				
					<path style="fill:none;stroke:#A8523F;stroke-width:0.7482;stroke-linecap:round;stroke-linejoin:round;stroke-miterlimit:10;" d="
					M270.541,388.621c0,0-2.483-1.124-4.696,3.197"/>
			</g>
			<g>
				<path style="fill:#C67D69;" d="M257.566,403.782c0,0-3.474,2.451-6.639,3.056c-3.165,0.605-6.243-1.232-6.282-1.255
					c-0.039-0.022-3.696-2.126-3.696-2.126l-1.514,20.279l0.41,0.338c5.367,4.427,13.104,4.48,18.531,0.126l0.794-0.637
					L257.566,403.782z"/>
			</g>
			<path style="fill:#1E0B02;" d="M239.435,401.325c0,0,3.452,11.3,11.396,11.175c6.53-0.103,7.583-11.175,7.583-11.175H239.435z"/>
			<path style="fill:#C67D69;" d="M266.298,378.86c0.035,6.964-0.929,12.979-1.901,17.249c-0.951,4.181-3.672,7.113-7.527,9.482
				l-0.702,0.431c-4.078,2.506-9.363,2.591-13.529,0.217l0,0c-4.201-2.394-7.15-5.564-8.076-10.041
				c-1.683-8.142-1.908-17.168-1.908-17.168s-2.365-18.838,15.779-18.588C266.58,360.692,266.298,378.86,266.298,378.86z"/>
			<g>
				<circle style="fill:#1E0B02;" cx="241.65" cy="384.385" r="1.468"/>
				<circle style="fill:#1E0B02;" cx="256.057" cy="384.385" r="1.468"/>
				
					<polyline style="fill:none;stroke:#A8523F;stroke-width:0.7482;stroke-linecap:round;stroke-linejoin:round;stroke-miterlimit:10;" points="
					247.521,386.53 247.521,390.579 250.138,390.579 				"/>
				<path d="M236.18,378.18l9.594-0.865c0,0-0.859-2.486-4.738-2.083C237.067,375.645,236.18,378.18,236.18,378.18z"/>
				<path d="M260.908,378.18l-9.593-0.865c0,0,0.859-2.486,4.738-2.083C260.021,375.645,260.908,378.18,260.908,378.18z"/>
				<path style="fill:#FFFFFF;" d="M244.238,393.933h9.464c0,0-0.445,2.899-4.872,2.899S244.238,393.933,244.238,393.933z"/>
			</g>
			<g>
				<path style="fill:#1E0B02;" d="M233.274,387.945c0,0,2.686-20.374,1.372-23.731
					C234.646,364.213,225.508,371.773,233.274,387.945z"/>
				<path style="fill:#1E0B02;" d="M265.613,387.781c0,0-3.023-19.456-2.185-25.054
					C263.429,362.727,272.253,370.543,265.613,387.781z"/>
			</g>
			<path style="fill:#1E0B02;" d="M262.797,358.427l-8.366-1.648l-0.737-1.885l-4.415,0.87l-4.415-0.87l-0.737,1.885l-8.365,1.648
				l-1.116,5.829l0.275,6.72c0,0,1.324-7.622,5.934-6.104c1.087,0.358,2.389,0.951,3.91,1.351c1.421,0.403,2.776,0.586,4.054,0.615
				c0.151,0.005,0.308,0,0.461,0.001c0.154-0.001,0.31,0.004,0.461-0.001c1.278-0.028,2.632-0.212,4.053-0.615
				c1.521-0.4,2.851-0.871,3.91-1.351c4.273-1.937,5.847,5.757,5.847,5.757l0.362-6.373L262.797,358.427z"/>
			<path style="fill:#C67D69;" d="M239.435,423.737l-5.813,2.671c0,0-0.063,9.746,15.734,9.24
				c16.197-0.518,16.101-9.093,16.101-9.093l-6.287-2.992L239.435,423.737z"/>
			<path style="fill:#1E0B02;" d="M232.904,369.388c0,2.028-1.644,3.673-3.673,3.673c-2.028,0-3.673-1.644-3.673-3.673
				c0-2.028,1.644-3.673,3.673-3.673C231.259,365.716,232.904,367.36,232.904,369.388z"/>
			<path style="fill:#1E0B02;" d="M232.971,375.77c0,1.707-1.384,3.09-3.09,3.09c-1.707,0-3.09-1.384-3.09-3.09
				c0-1.707,1.384-3.09,3.09-3.09C231.587,372.68,232.971,374.063,232.971,375.77z"/>
			<path style="fill:#1E0B02;" d="M271.866,375.254c0,1.707-1.384,3.091-3.09,3.091c-1.707,0-3.091-1.384-3.091-3.091
				s1.384-3.09,3.091-3.09C270.482,372.164,271.866,373.547,271.866,375.254z"/>
			<path style="fill:#1E0B02;" d="M235.636,364.213c0,2.028-1.644,3.673-3.673,3.673c-2.029,0-3.673-1.644-3.673-3.673
				c0-2.028,1.644-3.673,3.673-3.673C233.991,360.54,235.636,362.185,235.636,364.213z"/>
			<path style="fill:#1E0B02;" d="M239.308,359.338c0,2.028-1.644,3.673-3.673,3.673s-3.673-1.644-3.673-3.673
				c0-2.028,1.644-3.673,3.673-3.673S239.308,357.31,239.308,359.338z"/>
			<path style="fill:#1E0B02;" d="M244.649,356.499c0,2.028-1.644,3.673-3.673,3.673s-3.673-1.644-3.673-3.673
				c0-2.028,1.644-3.673,3.673-3.673S244.649,354.471,244.649,356.499z"/>
			<path style="fill:#1E0B02;" d="M250.06,355.267c0,2.028-1.644,3.673-3.673,3.673c-2.028,0-3.673-1.644-3.673-3.673
				c0-2.028,1.644-3.673,3.673-3.673C248.415,351.594,250.06,353.238,250.06,355.267z"/>
			<path style="fill:#1E0B02;" d="M266.139,369.388c0,2.028,1.644,3.673,3.673,3.673c2.028,0,3.673-1.644,3.673-3.673
				c0-2.028-1.644-3.673-3.673-3.673C267.784,365.716,266.139,367.36,266.139,369.388z"/>
			<path style="fill:#1E0B02;" d="M263.407,364.213c0,2.028,1.644,3.673,3.673,3.673c2.029,0,3.673-1.644,3.673-3.673
				c0-2.028-1.644-3.673-3.673-3.673C265.052,360.54,263.407,362.185,263.407,364.213z"/>
			<path style="fill:#1E0B02;" d="M259.735,359.338c0,2.028,1.644,3.673,3.673,3.673c2.028,0,3.673-1.644,3.673-3.673
				c0-2.028-1.644-3.673-3.673-3.673C261.379,355.665,259.735,357.31,259.735,359.338z"/>
			<path style="fill:#1E0B02;" d="M254.394,356.499c0,2.028,1.644,3.673,3.673,3.673c2.028,0,3.673-1.644,3.673-3.673
				c0-2.028-1.644-3.673-3.673-3.673C256.038,352.826,254.394,354.471,254.394,356.499z"/>
			<path style="fill:#1E0B02;" d="M248.983,355.267c0,2.028,1.644,3.673,3.673,3.673c2.028,0,3.673-1.644,3.673-3.673
				c0-2.028-1.644-3.673-3.673-3.673C250.628,351.594,248.983,353.238,248.983,355.267z"/>
		</g>
	</g>
	<g>
		<defs>
			
				<ellipse id="SVGID_00000100353141381983317560000017340875472035181968_" transform="matrix(0.2354 -0.9719 0.9719 0.2354 -96.3949 684.5319)" cx="386.882" cy="403.533" rx="56.54" ry="56.54"/>
		</defs>
		<use xlink:href="#SVGID_00000100353141381983317560000017340875472035181968_"  style="overflow:visible;fill:#FFD9BA;"/>
		<clipPath id="SVGID_00000131362846687709556900000008658689514376980358_">
			<use xlink:href="#SVGID_00000100353141381983317560000017340875472035181968_"  style="overflow:visible;"/>
		</clipPath>
		<g style="clip-path:url(#SVGID_00000131362846687709556900000008658689514376980358_);">
			<path style="fill:#D3445B;" d="M425.017,452.79c-1.831-4.88-7.429-11.29-18.271-12.99l-20.208-3.967L366.33,439.8
				c-10.843,1.7-16.44,8.11-18.271,12.99l-4.235,19.12h18.544h1.355h22.815h22.815h1.355h18.544L425.017,452.79z"/>
			<path style="fill:#966050;" d="M365.7,440.008l21.915-4.443l20.449,4.382l-0.454,0.326
				C395.115,449.265,378.297,448.856,365.7,440.008L365.7,440.008z"/>
			<g>
				<g>
					<path style="fill:#7C483D;" d="M375.608,407.589c0.126,3.264-2.418,6.013-5.682,6.139c-3.264,0.126-6.013-2.418-6.139-5.682
						c-0.126-3.264,2.418-6.013,5.682-6.139C372.734,401.78,375.482,404.324,375.608,407.589z"/>
					
						<path style="fill:none;stroke:#000000;stroke-width:0.6612;stroke-linecap:round;stroke-linejoin:round;stroke-miterlimit:10;" d="
						M366.331,407.02c0,0,2.34-1.17,4.624,2.893"/>
				</g>
				<g>
					<path style="fill:#7C483D;" d="M397.204,407.533c0.034,3.267,2.709,5.887,5.976,5.854c3.267-0.034,5.887-2.709,5.854-5.976
						c-0.034-3.267-2.709-5.887-5.976-5.854C399.791,401.591,397.171,404.267,397.204,407.533z"/>
					
						<path style="fill:none;stroke:#000000;stroke-width:0.6612;stroke-linecap:round;stroke-linejoin:round;stroke-miterlimit:10;" d="
						M406.442,406.512c0,0-2.394-1.054-4.477,3.116"/>
				</g>
				<ellipse transform="matrix(0.9999 -0.0103 0.0103 0.9999 -4.0399 4.0074)" cx="386.094" cy="393.26" rx="20.345" ry="18.99"/>
				<g>
					<path style="fill:#966050;" d="M392.236,419.392c0,0-2.534,2.376-4.861,2.977c-2.327,0.601-4.616-1.142-4.646-1.164
						c-0.029-0.021-2.749-2.017-2.749-2.017l-0.893,19.478l0.306,0.322c4.006,4.215,9.711,4.216,13.664,0l0.578-0.617
						L392.236,419.392z"/>
				</g>
				<path style="fill:#1E0B02;" d="M378.111,416.635c0,0,3.399,11.341,9.255,11.169c4.814-0.141,6.04-10.761,6.04-10.761
					L378.111,416.635z"/>
				<path style="fill:#966050;" d="M402.26,396.421c0.098,6.398-0.771,11.935-1.665,15.868c-0.874,3.851-3.459,6.573-7.138,8.788
					l-0.67,0.403c-3.892,2.344-8.965,2.475-12.986,0.336l0,0c-4.055-2.158-6.916-5.04-7.846-9.144
					c-1.691-7.464-1.991-15.755-1.991-15.755s-1.527-17.294,15.894-17.248C403.281,379.716,402.26,396.421,402.26,396.421z"/>
				<g>
					<polyline style="fill:none;stroke:#684138;stroke-linecap:round;stroke-linejoin:round;stroke-miterlimit:10;" points="
						384.803,405.448 384.829,407.949 386.538,407.931 					"/>
					<path d="M372.879,396.581l9.201-0.925c0,0-0.849-2.378-4.569-1.952C373.706,394.138,372.879,396.581,372.879,396.581z"/>
					<path d="M398.196,396.319l-9.218-0.735c0,0,0.8-2.395,4.527-2.046C397.319,393.895,398.196,396.319,398.196,396.319z"/>
					<path style="fill:#1E0B02;" d="M380.09,402.109c0.008,0.779-0.617,1.416-1.395,1.424s-1.416-0.617-1.424-1.395
						c-0.008-0.779,0.616-1.416,1.395-1.424C379.444,400.706,380.082,401.331,380.09,402.109z"/>
					<path style="fill:#1E0B02;" d="M393.92,401.966c0.008,0.779-0.617,1.416-1.395,1.424c-0.779,0.008-1.416-0.617-1.424-1.395
						c-0.008-0.779,0.616-1.416,1.395-1.424C393.274,400.563,393.912,401.188,393.92,401.966z"/>
					
						<path style="fill:none;stroke:#000000;stroke-width:0.6612;stroke-linecap:round;stroke-linejoin:round;stroke-miterlimit:10;" d="
						M380.553,411.543c0,0,3.936,2.092,10.226-0.105"/>
				</g>
				<path d="M402.22,392.487c0,0-25.626,1.225-24.7-13.82C377.52,378.667,399.795,372.105,402.22,392.487z"/>
				<path d="M369.543,392.837c0,0,8.967-3.862,8.872-13.092C378.415,379.744,369.194,380.904,369.543,392.837z"/>
			</g>
			<circle cx="385.454" cy="364.614" r="11.987"/>
			<path d="M384.965,372.22c0,3.72-3.185,6.736-7.114,6.736c-3.929,0-7.114-3.016-7.114-6.736c0-3.72,3.185-6.736,7.114-6.736
				C381.78,365.484,384.965,368.5,384.965,372.22z"/>
			<circle cx="394.549" cy="373.868" r="6.348"/>
		</g>
	</g>
</g>
</svg>
